# xmcd
# 
# Track frame offsets:
#     187
#     28565
#     58562
#     84542
#     120160
#     153140
#     187637
# 
# Disc length: 3011
# 
# Revision: 0
# Processed by: cddbd v1.5.2PL0 Copyright (c) Steve Scherf et al.
# Submitted via: BonkEnc v1.0.6
# 
DISCID=3f0bc107
DTITLE=Eric Gale - In a Jazz Tradition
DYEAR=1988
DGENRE=Jazz
TTITLE0=Eric's Gale
TTITLE1=If You Could See Me Now
TTITLE2=Bloomdido
TTITLE3=Lover Man
TTITLE4=Jordu
TTITLE5=Loose Change
TTITLE6=Blues For Everybody
EXTD=
EXTT0=
EXTT1=
EXTT2=
EXTT3=
EXTT4=
EXTT5=
EXTT6=
PLAYORDER=
